<svg xmlns="http://www.w3.org/2000/svg" width="520" height="72" viewBox="0 0 520 72" role="img" aria-labelledby="logoTitle logoDesc">
  <title id="logoTitle">Drain Cleaning Near Me dot US logo</title>
  <desc id="logoDesc">A modern plumbing-themed logo with a blue droplet icon and the text Drain Cleaning Near Me dot US on a transparent background.</desc>
  <defs>
    <linearGradient id="iconBg" x1="0" y1="0" x2="1" y2="1">
      <stop offset="0%" stop-color="#101A31"/>
      <stop offset="100%" stop-color="#0B1120"/>
    </linearGradient>
    <linearGradient id="dropFill" x1="0" y1="0" x2="1" y2="1">
      <stop offset="0%" stop-color="#44C3FF"/>
      <stop offset="100%" stop-color="#00A3FF"/>
    </linearGradient>
    <filter id="iconGlow" x="-40%" y="-40%" width="180%" height="180%">
      <feGaussianBlur stdDeviation="4" result="blur"/>
      <feColorMatrix in="blur" type="matrix" values="1 0 0 0 0 0 1 0 0 0.639 0 0 1 0 1 0 0 0 0.18 0" result="glow"/>
      <feMerge>
        <feMergeNode in="glow"/>
        <feMergeNode in="SourceGraphic"/>
      </feMerge>
    </filter>
  </defs>

  <g transform="translate(6 8)" filter="url(#iconGlow)">
    <rect x="0" y="0" width="56" height="56" rx="18" fill="url(#iconBg)" stroke="#FFFFFF" stroke-opacity="0.08"/>
    <circle cx="28" cy="28" r="20" fill="none" stroke="#00A3FF" stroke-width="2.5"/>
    <path d="M28 13C28 13 19.5 24 19.5 31.5C19.5 38.13 23.31 43 28 43C32.69 43 36.5 38.13 36.5 31.5C36.5 24 28 13 28 13Z" fill="url(#dropFill)"/>
    <g stroke="#FFFFFF" stroke-opacity="0.45" stroke-linecap="round" stroke-width="1.5">
      <path d="M23.4 27.4H32.6"/>
      <path d="M22.3 31.2H33.7"/>
      <path d="M23.9 35H32.1"/>
      <path d="M25.9 24.8V36.3"/>
      <path d="M30.1 24.8V36.3"/>
    </g>
  </g>

  <g font-family="Inter, Arial, Helvetica, sans-serif" text-rendering="geometricPrecision">
    <text x="78" y="29" fill="#FFFFFF" font-size="24" font-weight="800" letter-spacing="0.2">Drain Cleaning</text>
    <text x="78" y="54" fill="#E5E7EB" font-size="22" font-weight="700" letter-spacing="0.1">Near Me</text>
    <text x="171" y="54" fill="#00A3FF" font-size="22" font-weight="800">.us</text>
    <path d="M78 62H248" stroke="#00A3FF" stroke-width="2.5" stroke-linecap="round" opacity="0.8"/>
  </g>
</svg>
