<svg xmlns="http://www.w3.org/2000/svg" width="240" height="48" viewBox="0 0 240 48" role="img" aria-labelledby="logoTitle logoDesc">
  <title id="logoTitle">DrainCleaningNearMe.us logo</title>
  <desc id="logoDesc">Blue water droplet icon and the brand name DrainCleaningNearMe.us on a transparent background.</desc>
  <defs>
    <linearGradient id="dropGlow" x1="0" y1="0" x2="1" y2="1">
      <stop offset="0%" stop-color="#33BCFF"/>
      <stop offset="100%" stop-color="#00A3FF"/>
    </linearGradient>
    <filter id="softGlow" x="-50%" y="-50%" width="200%" height="200%">
      <feGaussianBlur stdDeviation="2" result="blur"/>
      <feColorMatrix in="blur" type="matrix" values="1 0 0 0 0  0 1 0 0 0.639  0 0 1 0 1  0 0 0 0.24 0" result="glow"/>
      <feMerge>
        <feMergeNode in="glow"/>
        <feMergeNode in="SourceGraphic"/>
      </feMerge>
    </filter>
  </defs>

  <g transform="translate(4 4)" filter="url(#softGlow)">
    <circle cx="20" cy="20" r="18" fill="none" stroke="#00A3FF" stroke-width="2"/>
    <path d="M20 6C20 6 12.4 16 12.4 23.4C12.4 29.73 15.81 34 20 34C24.19 34 27.6 29.73 27.6 23.4C27.6 16 20 6 20 6Z" fill="url(#dropGlow)"/>
    <g stroke="#FFFFFF" stroke-opacity="0.34" stroke-linecap="round" stroke-width="1.2">
      <path d="M16.5 20.5H23.5"/>
      <path d="M15.7 23.6H24.3"/>
      <path d="M16.9 26.7H23.1"/>
      <path d="M18.4 18.1V27.7"/>
      <path d="M21.6 18.1V27.7"/>
    </g>
  </g>

  <g font-family="Inter, Arial, Helvetica, sans-serif" font-weight="800" font-size="22" dominant-baseline="middle">
    <text x="50" y="24" fill="#FFFFFF" letter-spacing="-0.4">DrainCleaningNearMe</text>
    <text x="219" y="24" fill="#00A3FF">.us</text>
  </g>
</svg>
