<svg xmlns="http://www.w3.org/2000/svg" width="560" height="56" viewBox="0 0 560 56" role="img" aria-labelledby="logoTitle logoDesc">
  <title id="logoTitle">DrainCleaningNearMe.us logo</title>
  <desc id="logoDesc">A modern single-line plumbing-themed logo with a blue droplet icon and the DrainCleaningNearMe.us wordmark on a transparent background.</desc>
  <defs>
    <linearGradient id="iconBg" x1="0" y1="0" x2="1" y2="1">
      <stop offset="0%" stop-color="#101A31"/>
      <stop offset="100%" stop-color="#0B1120"/>
    </linearGradient>
    <linearGradient id="dropFill" x1="0" y1="0" x2="1" y2="1">
      <stop offset="0%" stop-color="#44C3FF"/>
      <stop offset="100%" stop-color="#00A3FF"/>
    </linearGradient>
    <filter id="iconGlow" x="-40%" y="-40%" width="180%" height="180%">
      <feGaussianBlur stdDeviation="4" result="blur"/>
      <feColorMatrix in="blur" type="matrix" values="1 0 0 0 0 0 1 0 0 0.639 0 0 1 0 1 0 0 0 0.18 0" result="glow"/>
      <feMerge>
        <feMergeNode in="glow"/>
        <feMergeNode in="SourceGraphic"/>
      </feMerge>
    </filter>
  </defs>

  <g transform="translate(6 6)" filter="url(#iconGlow)">
    <rect x="0" y="0" width="44" height="44" rx="14" fill="url(#iconBg)" stroke="#FFFFFF" stroke-opacity="0.08"/>
    <circle cx="22" cy="22" r="16" fill="none" stroke="#00A3FF" stroke-width="2.25"/>
    <path d="M22 10C22 10 15.1 19 15.1 25.1C15.1 30.55 18.19 34.5 22 34.5C25.81 34.5 28.9 30.55 28.9 25.1C28.9 19 22 10 22 10Z" fill="url(#dropFill)"/>
    <g stroke="#FFFFFF" stroke-opacity="0.45" stroke-linecap="round" stroke-width="1.5">
      <path d="M18.3 21.5H25.7"/>
      <path d="M17.4 24.7H26.6"/>
      <path d="M18.7 27.8H25.3"/>
      <path d="M20.3 19.3V29"/>
      <path d="M23.7 19.3V29"/>
    </g>
  </g>

  <g font-family="Inter, Arial, Helvetica, sans-serif" text-rendering="geometricPrecision">
    <text x="62" y="34" fill="#FFFFFF" font-size="25" font-weight="800" letter-spacing="-0.3">DrainCleaningNearMe</text>
    <text x="320" y="34" fill="#00A3FF" font-size="25" font-weight="800">.us</text>
    <path d="M62 42H354" stroke="#00A3FF" stroke-width="2.5" stroke-linecap="round" opacity="0.7"/>
  </g>
</svg>
